<?xml version="1.0" encoding="UTF-8"?>
<svg id="Camada_2" data-name="Camada 2" xmlns="http://www.w3.org/2000/svg" viewBox="0 0 400.24 521.22">
  <defs>
    <style>
      .cls-1 {
        fill: #fbba00;
      }
    </style>
  </defs>
  <g id="Camada_2-2" data-name="Camada 2">
    <path class="cls-1" d="M47.15,521.22h88.04v-4.7c-12.59-4.06-19.24-11.67-21.52-21.91v-87.65s-43.04-20.74-43.04-20.74v108c-1.27,5.07-12.74,18.48-23.48,22.3v4.7Z"/>
    <path class="cls-1" d="M219.46,87.07v27.84h82.17v9l-95.56,29.92v3.9c6.49,1.68,10.69,5.02,12.91,9.8l7.12,207.21c8.35-14.21,23.1-21.72,46.63-20.02v41.87c-8.02,9.59-36.2,4.3-46.57,15.26l-25.8,32.28-26.24-32.48c-6.46-8.41-31.89-7.24-52.83-15.07-53.41-16.83-96.46-49.11-121.3-90.39,23.74,12.79,47.29,23.69,70.5,31.37l-.52-90.78c-4.1-11.03-11.46-18.11-20.61-22.7v-6h85.83v6.13c-7.73,3.82-17.22,13.11-21.08,22.65v100.48c15.41,11.67,42.41,4.43,60.21,27.39l6.39-207.26c2.2-4.3,6.18-7.69,12.65-9.78v-3.91l-95.35-29.87v-9.07h82.76v-27.65"/>
    <path class="cls-1" d="M199.99,0c-25.24,0-45.71,20.46-45.71,45.71s20.46,45.71,45.71,45.71,45.71-20.46,45.71-45.71S225.23,0,199.99,0ZM199.99,75.65c-17.81,0-32.25-13.41-32.25-29.95s14.44-29.95,32.25-29.95,32.25,13.41,32.25,29.95-14.44,29.95-32.25,29.95Z"/>
    <path class="cls-1" d="M262.92,218.15v6.07c11.21,5.52,18.74,12.96,22.14,22.57v247.7c-4.98,7.85-12.63,15.15-22.09,22.09v4.65s89.01,0,89.01,0v-4.63c-9.32-4.48-16.56-11.72-21.59-21.91v-119.02c31.15-19.09,56.53-41.15,69.85-69.39-30.65,20.87-57.91,26.74-69.85,32.8v-92.15c4.45-9.03,11.02-16.53,19.63-22.57v-6.2h-87.1Z"/>
  </g>
</svg>